<svg width="200" height="200" viewBox="0 0 200 200" fill="none" xmlns="http://www.w3.org/2000/svg">
<rect x="2" y="2" width="196" height="196" rx="30" stroke="#606060" stroke-width="4"/>
<path d="M30.3708 101.085C26.9788 101.085 24.9688 98.6357 24.9688 96.0603C24.9688 94.6156 25.5969 93.108 26.9788 91.9774L92.4311 37.0151C94.818 35.005 97.3934 34 99.9688 34C102.544 34 105.12 35.005 107.506 37.0151L140.861 64.9673V52.7186C140.861 49.9548 142.682 48.196 145.383 48.196H152.104C154.868 48.196 156.627 49.9548 156.627 52.7186V78.2211L172.959 91.9774C174.403 93.108 174.969 94.6156 174.969 96.0603C174.969 98.6357 172.959 101.085 169.567 101.085C167.808 101.085 166.363 100.143 165.107 99.0754L102.167 46.2487C101.476 45.6834 100.723 45.3693 99.9688 45.3693C99.2778 45.3693 98.4612 45.6834 97.7703 46.2487L34.8934 99.0754C33.5743 100.143 32.1296 101.085 30.3708 101.085ZM44.5667 152.279V102.405L96.1999 59.1256C98.524 57.1784 101.351 57.1156 103.738 59.1256L155.371 102.405V152.279C155.371 161.01 150.157 166.098 141.3 166.098H58.6999C49.8431 166.098 44.5667 161.01 44.5667 152.279ZM83.009 155.985H116.929V119.05C116.929 116.161 115.107 114.276 112.155 114.276H87.8456C84.9562 114.276 83.009 116.161 83.009 119.05V155.985Z" fill="#606060"/>
</svg>
