<svg width="384" height="341" viewBox="0 0 384 341" fill="none" xmlns="http://www.w3.org/2000/svg">
<g clip-path="url(#clip0_3_5)">
<path d="M-94 -28H478V365H-94V-28Z" fill="white"/>
<path d="M0.513772 0.528114C5.87599 -0.0963009 17.0172 0.225613 22.9123 0.228965L64.3722 0.227288L203.728 0.191815L326.99 0.167235L364.427 0.162767C368.733 0.163884 379.665 -0.0852675 383.589 0.391807C383.818 4.26511 384.251 13.3348 383.296 16.7998C382.612 19.367 375.998 36.0138 373.914 37.8754C372.789 38.8821 361.821 38.4192 359.031 38.4947C358.506 39.408 358.095 40.1781 357.441 41.0149C357.07 52.1248 357.388 64.5396 357.436 75.7766L357.807 142.872L358.229 320.253C361.098 320.262 365.323 320.088 367.96 320.82C368.136 326.971 369.186 332.337 365.279 337.197C359.506 337.498 352.85 337.328 346.985 337.328L315.684 337.32L220.525 337.297L87.1204 337.306L43.3442 337.322C35.5988 337.325 27.2313 337.479 19.5328 337.283C14.7504 332.278 16.1821 332.024 15.9033 324.974C15.8592 323.856 16.0357 322.016 16.3569 320.968C17.5716 319.907 23.7032 320.211 25.6444 320.203L25.6868 316.371C25.8857 310.092 25.7538 303.167 25.7854 296.807L25.9926 262.499L26.1647 137.313L26.6339 66.0326L26.7224 50.5564C26.7409 47.2356 26.9872 41.7736 26.2406 38.7276C24.261 37.9606 16.127 38.7768 13.6148 38.338C13.0254 38.2352 11.734 36.9059 11.37 36.3408C9.89145 34.0437 8.4514 31.3441 7.16719 28.9168C5.05431 24.9232 2.60404 20.8041 0.685827 16.7453C-0.0685538 14.5228 0.336419 3.33191 0.513772 0.528114Z" fill="#0B0B0B"/>
<path d="M42.9376 113.305C44.8274 111.786 46.8617 106.059 49.0294 103.986C50.2764 102.793 50.5102 102.956 52.3536 102.858C53.6037 101.835 54.7611 99.5186 55.5635 98.0589C59.5999 90.7843 64.3332 83.9192 69.6965 77.5597C70.9997 76.04 72.2948 75.0196 73.4726 73.6873L73.2989 72.1376L73.6298 71.7628C80.8103 71.9734 82.4224 63.698 85.9452 60.9336C94.3224 54.3591 104.403 46.6787 113.95 41.9199C113.988 43.2224 114.963 51.6407 114.908 51.8357L114.85 51.3779L114.942 51.827C115.429 50.0422 115.093 47.8719 115.713 46.3454L115.791 46.0393C121.922 45.6868 129.021 45.8527 135.238 45.8544L166.81 45.8625L268.282 45.8122C268.472 47.2434 268.625 48.4149 268.695 49.8562C269.08 48.9392 268.966 47.7741 268.868 46.7773C269.259 47.3602 269.287 48.2171 269.404 48.9721C270.156 48.4607 269.681 45.9759 270.605 44.9153C273.636 44.3768 275.415 46.9988 277.758 47.9227C281.772 50.4676 285.757 52.9605 289.522 55.8657C290.128 56.3341 291.067 57.1327 291.695 57.517C294.7 60.7401 306.749 75.5062 310.771 74.2001C317.865 82.3249 324.208 90.95 329.288 100.5C329.788 101.443 331.084 103.824 331.33 104.781C332.528 105.332 333.604 105.19 334.941 105.18C336.732 106.879 340.064 111.802 340.96 112.247L341.086 111.894C339.122 109.641 340.226 107.863 339.508 105.383C338.921 105.563 338.687 105.59 338.092 105.682C337.332 105.108 337.578 105.39 337.215 104.463L337.927 104.811L338.296 104.598C338.234 103.845 338.067 103.697 337.651 103.078L338.623 102.535L338.706 102.845C339.156 102.113 338.852 102.408 339.731 102.03C340.868 102.225 342.058 102.481 343.2 102.487L343.379 102.024L343.857 102.603C343.759 103.612 343.513 104.499 343.379 105.493C342.859 109.287 343.625 113.002 343.728 116.766C343.851 121.337 343.681 125.972 343.72 130.548C343.714 132.265 343.795 137.269 343.605 138.657L343.653 178.556C343.661 183.783 343.387 193.843 343.882 198.735C343.968 199.484 344.141 200.61 344.066 201.324C343.586 204.553 343.781 212.455 344.03 215.952C343.153 215.733 341.245 215.303 340.43 215.648L340.164 216.338C340.896 217.497 340.684 219.954 340.659 221.379L339.902 224.362L337.894 228.663C337.363 229.237 336.695 229.896 336.282 230.544L335.061 232.732C332.62 236.674 321.493 254.773 318.396 256.653C317.943 257.203 316.153 259.496 315.715 259.722C315.315 260.471 314.938 261.08 314.706 261.898L314.438 262.158C313.486 262.298 312.841 261.842 311.933 261.412L311.835 260.89C309.02 261.538 304.777 266.563 302.836 268.823L302.227 269.267L299.367 266.158C299.158 265.775 298.703 265.27 298.412 264.915C297.937 266.096 298.152 267.775 297.781 268.342C296.027 271.021 293.195 273.071 290.768 275.107C281.241 283.071 269.971 290.252 258.718 295.503C220.541 312.93 177.071 314.765 137.561 300.62C120.207 294.299 98.096 281.741 85.5502 268.278C85.9142 267.521 86.4155 266.675 86.1881 265.859C85.2458 262.485 80.5785 258.203 77.6866 256.387C77.3054 256.435 75.474 256.658 75.2688 256.577C73.469 255.862 70.7763 252.211 69.5758 250.776L68.843 251.037L70.4621 253.237C68.6321 253.753 67.2979 253.706 65.6841 254.466C64.5083 253.468 61.8494 249.953 60.8914 248.633C53.9296 239.032 48.2795 228.545 44.0903 217.45C43.9289 216.754 43.7814 216.055 43.6484 215.352C42.5259 215.303 41.1616 215.334 40.0176 215.33L40.224 214.14C39.7592 211.861 40.3494 206.929 40.2986 204.378C40.0639 192.631 40.2064 180.854 40.3055 169.108L40.4645 132.257C40.479 128.038 40.4781 123.81 40.5033 119.591C40.5108 118.338 40.2586 113.161 40.8175 112.582C41.578 112.237 41.7866 112.08 42.3221 111.439L42.5902 111.617C42.4327 112.536 42.4533 112.612 41.8959 113.32L42.1665 113.586C42.7256 113.478 42.5941 113.608 42.9376 113.305Z" fill="#363636"/>
<path d="M115.791 46.0393C121.922 45.6868 129.021 45.8527 135.238 45.8544L166.81 45.8625L268.282 45.8122L268.245 89.9511C268.248 101.054 268.189 112.248 268.259 123.34C268.296 129.357 271.189 136.332 271.96 143.279C274.873 167.738 266.335 192.172 248.823 209.492C217.128 240.529 164.892 240.48 133.853 208.567C119.073 193.375 111.005 172.888 111.458 151.695C111.566 144.452 112.529 137.605 114.567 130.651C115.075 128.918 115.68 126.14 115.675 124.363C115.607 98.4052 116.043 72.2935 115.713 46.3454L115.791 46.0393Z" fill="white"/>
<path d="M308.847 256.572C320.694 242.758 329.112 229.781 335.645 212.62C340.005 201.17 339.058 196.85 338.857 184.893L338.648 161.401C338.572 153.967 338.396 146.517 338.377 139.084C338.36 133.766 339.117 128.284 338.69 122.984C338.634 122.281 338.533 122.229 338.79 121.641C339.851 122.763 339.678 127.342 339.622 129.063C339.011 146.127 339.946 163.259 339.79 180.318C339.734 186.27 340.606 197.694 339.354 202.984C335.729 218.319 326.884 234.251 317.656 246.989C315.851 249.478 314.058 251.589 312.145 253.952C311.648 254.555 311.818 254.686 312.019 255.225C313.299 255.924 313.463 255.982 314.273 257.167C314.681 257.921 315.243 259.046 315.715 259.722C315.315 260.471 314.938 261.08 314.706 261.898L314.438 262.158C313.486 262.298 312.841 261.842 311.933 261.412L311.835 260.89C312.606 260.499 313.824 259.711 314.589 259.245C311.947 258.7 311.355 258.613 309.361 256.884L308.847 256.572Z" fill="#0B0B0B"/>
<path d="M68.8429 251.037C61.2242 241.198 53.8192 229.884 49.4532 218.245C48.2453 215.025 44.7044 205.789 44.4038 202.7C44.0028 198.577 44.1148 190.94 44.1128 186.6L44.2153 154.824L44.2569 136.113C44.2298 123.52 44.0804 121.406 49.3169 109.59L49.5267 109.685C49.2337 112.968 45.1755 119.318 45.3484 123.586C45.4456 125.991 45.3121 128.888 45.3425 131.351C45.4006 135.846 45.4288 140.342 45.4272 144.838C45.2914 158.194 45.2275 171.552 45.235 184.909C45.2015 191.155 44.6935 199.02 45.628 205.093C45.7785 206.071 47.5783 211.041 48.0417 212.338C52.9827 226.282 60.2651 239.281 69.5757 250.776L68.8429 251.037Z" fill="#0B0B0B"/>
<path d="M340.164 216.338C340.896 217.497 340.684 219.955 340.659 221.379L339.902 224.362L337.894 228.663C337.363 229.237 336.695 229.896 336.282 230.544L335.061 232.732C332.62 236.674 321.493 254.773 318.396 256.653C317.943 257.203 316.153 259.496 315.715 259.722C315.243 259.046 314.681 257.921 314.273 257.167C317.851 256.742 331.417 234.539 333.771 230.103C335.813 226.262 338.008 220.298 340.164 216.338Z" fill="#202020"/>
<path d="M299.367 266.158C301.152 264.881 303.453 262.021 305.14 260.423C306.54 259.102 307.858 258.074 309.361 256.885C311.355 258.613 311.947 258.7 314.589 259.245C313.824 259.711 312.606 260.499 311.835 260.89C309.02 261.538 304.777 266.563 302.836 268.823L302.227 269.267L299.367 266.158Z" fill="#424242"/>
<path d="M343.379 102.024L343.857 102.603C343.759 103.612 343.513 104.499 343.379 105.493C342.859 109.287 343.625 113.002 343.728 116.766C343.851 121.337 343.681 125.972 343.72 130.548C343.714 132.265 343.795 137.269 343.605 138.657C343.415 137.964 343.519 134.991 343.454 134.089C343.119 129.444 344.127 116.607 343.128 112.84C342.552 112.154 342.781 112.202 342.119 112.141C341.848 112.734 341.862 112.866 341.318 113.226C338.868 112.405 337.114 107.13 334.615 105.793C333.302 105.089 333.19 106.637 332.271 106.938C331.757 106.212 331.615 105.618 331.33 104.781C332.528 105.332 333.604 105.19 334.941 105.18C336.732 106.879 340.064 111.802 340.96 112.247L341.086 111.894C339.122 109.641 340.226 107.863 339.508 105.383C338.921 105.563 338.687 105.59 338.092 105.682C337.332 105.108 337.578 105.39 337.215 104.463L337.927 104.811L338.296 104.598C338.234 103.845 338.067 103.697 337.651 103.078L338.623 102.535L338.706 102.845C339.156 102.113 338.852 102.408 339.731 102.03C340.868 102.225 342.058 102.481 343.2 102.487L343.379 102.024Z" fill="#202020"/>
<path d="M339.731 102.031C340.868 102.225 342.058 102.481 343.2 102.487C343.32 103.397 343.315 103.425 342.943 104.285C340.888 106.39 339.505 104.999 338.706 102.845C339.156 102.113 338.852 102.408 339.731 102.031Z" fill="#424242"/>
<path d="M308.847 256.572L309.361 256.884C307.858 258.074 306.54 259.102 305.14 260.423C303.453 262.021 301.152 264.881 299.367 266.158C299.158 265.775 298.703 265.27 298.412 264.915C299.94 262.672 302.671 259.923 304.682 258.041C306.417 256.412 306.741 256.588 308.847 256.572Z" fill="#0B0B0B"/>
<path d="M344.066 201.324C342.907 200.754 341.851 200.916 340.48 200.777L340.117 200.282C340.078 199.473 339.997 199.143 340.273 198.405C341.103 198.014 342.725 198.549 343.882 198.735C343.968 199.484 344.141 200.61 344.066 201.324Z" fill="#424242"/>
<path d="M40.224 214.14C41.4219 214.095 42.6891 213.929 43.7833 214.321L43.9607 214.835L43.6484 215.352C42.5259 215.303 41.1616 215.334 40.0176 215.33L40.224 214.14Z" fill="#595959"/>
<path d="M269.748 97.8837C271.074 98.1072 272.334 99.8708 273.278 100.877C279.328 107.337 284.355 114.247 288.338 122.148C299.853 145.004 301.185 168.411 293.153 192.663L292.809 192.6C292.79 192.378 295.91 180.433 296.197 178.605C299.806 155.556 294.996 133.265 282.107 113.806C280.383 111.207 269.804 99.3876 269.748 97.8837Z" fill="#0B0B0B"/>
<path d="M113.551 97.8658C115.201 98.5781 112.434 100.853 111.683 101.638C106.103 107.422 101.328 113.931 97.484 120.989C88.9607 136.668 85.965 151.164 86.7894 168.887C86.8869 171.336 87.09 173.779 87.3975 176.209C87.6519 178.147 88.1002 180.076 88.0658 182.038C85.6683 178.002 85.4807 162.907 85.7063 157.988C86.7386 135.497 97.5524 113.274 113.551 97.8658Z" fill="#0B0B0B"/>
<path d="M269.575 107.913C270.36 108.262 272.577 111.677 273.331 112.59C282.688 123.947 288.374 139.329 290.514 153.824L290.028 153.672C289.458 152.298 288.215 145.836 287.788 143.973C286.416 137.847 284.274 131.919 281.409 126.334C279.937 123.446 278.367 120.91 276.688 118.181C274.809 115.127 270.279 111.082 269.575 107.913Z" fill="#0B0B0B"/>
<path d="M204.627 263.13L204.792 263.306L204.75 263.753C200.002 265.65 184.124 265.323 179.212 264.178L179.015 263.837L179.187 263.423C180.521 263.34 183.946 264.027 185.741 264.102C192.687 264.393 197.882 264.493 204.627 263.13Z" fill="#595959"/>
<path d="M96.0911 141.184L96.366 141.393C96.7704 142.361 94.2941 152.498 93.8721 154.183L93.5411 154.061C93.8031 150.092 95.1851 145.161 96.0911 141.184Z" fill="#0B0B0B"/>
<path d="M232.015 256.826C232.135 256.854 232.442 257.086 232.565 257.169C231.261 258.426 226.853 259.683 225.027 259.971L224.521 259.876L224.577 259.532C225.865 258.647 229.219 258.317 232.015 256.826Z" fill="#424242"/>
<path d="M95.4988 183.037C96.6151 184.094 98.4987 191.127 98.6224 192.826L98.5107 192.78C97.5678 191.822 95.5977 184.595 95.4988 183.037Z" fill="#202020"/>
<path d="M290.198 171.399L290.449 171.735C290.603 173.908 289.273 178.835 288.729 181.052C288.645 181.017 288.489 180.761 288.419 180.662C288.642 178.159 289.567 173.914 290.198 171.399Z" fill="#202020"/>
<path d="M150.932 256.876C152.827 257.033 154.123 256.901 155.667 257.938L155.402 257.912C155.818 258.605 155.685 258.382 156.747 258.667L157.223 258.787L157.259 259.049C155.076 259.292 152.713 258.013 150.932 256.876Z" fill="#424242"/>
<path d="M93.4951 172.786C94.4707 173.782 95.4536 179.949 95.5594 181.522C94.3665 180.38 93.6133 174.458 93.4951 172.786Z" fill="#0B0B0B"/>
<path d="M174.925 255.608C176.643 255.474 182.163 256.077 183.747 256.792C181.617 256.851 176.882 256.331 174.925 255.608Z" fill="#202020"/>
<path d="M160.555 260.306C162.704 259.991 164.169 260.697 166.087 261.611C164.321 261.555 162.121 261.136 160.555 260.306Z" fill="#424242"/>
<path d="M351.208 41.4811C351.917 41.004 356.422 40.8325 357.441 41.0149C357.07 52.1248 357.388 64.5396 357.436 75.7766L357.807 142.872L358.229 320.253C361.097 320.262 365.323 320.088 367.96 320.82C368.136 326.971 369.186 332.337 365.279 337.197C359.505 337.498 352.85 337.328 346.985 337.328L315.684 337.32L220.525 337.297L87.1204 337.306L43.3442 337.322C35.5988 337.325 27.2313 337.479 19.5328 337.283C14.7504 332.278 16.182 332.024 15.9033 324.974C15.8592 323.856 16.0357 322.016 16.3569 320.968C17.5715 319.907 23.7032 320.211 25.6443 320.203L25.6868 316.371C26.8936 315.667 29.7165 315.027 30.9529 316.536C31.1744 316.807 31.2596 317.823 31.3107 318.234L31.3037 320.248C31.9838 320.801 38.9766 320.764 39.7391 320.41L40.3437 276.635C40.6599 275.764 40.8387 234.137 40.5912 231.306C42.3879 230.668 44.5226 231.6 46.8086 230.168L45.5627 228.437C44.5795 226.549 43.5707 223.701 43.0216 221.652C43.0479 219.86 43.0342 218.995 44.0902 217.45C48.2794 228.545 53.9296 239.032 60.8913 248.633C61.8493 249.954 64.5082 253.468 65.6841 254.466C67.2978 253.706 68.632 253.753 70.462 253.237L68.8429 251.037L69.5758 250.776C70.7762 252.212 73.4689 255.862 75.2687 256.577C75.474 256.658 77.3053 256.435 77.6866 256.387C80.5784 258.203 85.2457 262.485 86.1881 265.859C86.4154 266.675 85.9141 267.521 85.5502 268.278C98.0959 281.741 120.207 294.299 137.561 300.62C177.071 314.765 220.541 312.93 258.718 295.503C269.971 290.252 281.241 283.071 290.768 275.107C293.195 273.071 296.027 271.021 297.781 268.342C298.152 267.775 297.937 266.096 298.412 264.915C298.703 265.27 299.158 265.775 299.367 266.158L302.227 269.267L302.836 268.823C304.777 266.563 309.02 261.538 311.835 260.89L311.933 261.412C312.841 261.842 313.486 262.298 314.438 262.158L314.706 261.898C314.938 261.08 315.315 260.471 315.715 259.722C316.153 259.496 317.943 257.203 318.396 256.653C321.493 254.773 332.62 236.674 335.061 232.732L336.282 230.544C336.695 229.896 337.363 229.237 337.893 228.663L339.902 224.362C341.536 223.685 342.256 224.45 343.627 223.566L343.968 224.23L343.965 228.904C344.018 230.443 343.963 241.889 343.681 242.879L343.921 265.275C343.39 270.901 343.985 276.766 343.862 282.361C343.586 295.059 344.172 308.19 344.072 320.82L351.99 320.887L352.012 320.373C352.101 318.575 351.956 315.27 351.976 313.256C352.026 305.092 351.99 296.927 351.87 288.766L351.534 232.324L351.208 41.4811Z" fill="#363636"/>
<path d="M77.2149 271.856L77.5958 272.267C78.4555 273.124 80.0654 274.356 80.6301 275.023C81.0971 276.104 81.268 276.04 81.1208 277.113L80.2226 278.308L81.9034 279.73C82.4564 280.367 86.7917 283.875 87.6611 284.557C99.1419 293.475 111.681 300.939 124.993 306.779C126.855 307.6 137.988 311.391 138.106 312.737C136.517 313.751 113.19 313.337 109.699 313.335L84.3878 313.354C79.9699 313.36 69.7258 313.957 65.7936 312.198C57.4937 308.477 61.6888 291.271 60.9296 283.903C60.5043 279.772 65.4478 276.518 69.115 275.576C70.347 274.585 74.416 275.842 76.1815 275.208L76.3647 274.582L77.2149 271.856Z" fill="white"/>
<path d="M77.2149 271.856L77.5958 272.267C78.4555 273.124 80.0654 274.356 80.6301 275.023C81.0971 276.104 81.268 276.04 81.1208 277.113L80.2226 278.308C75.5628 274.28 74.4024 276.373 69.115 275.576C70.347 274.585 74.416 275.842 76.1815 275.208L76.3647 274.582L77.2149 271.856Z" fill="#424242"/>
<path d="M43.0216 221.652C43.0479 219.86 43.0342 218.995 44.0902 217.45C48.2794 228.545 53.9295 239.032 60.8913 248.633C61.8493 249.954 64.5082 253.468 65.684 254.466C67.2978 253.706 68.632 253.753 70.462 253.237L68.8429 251.037L69.5758 250.776C70.7762 252.212 73.4689 255.862 75.2687 256.577C75.4739 256.658 77.3053 256.435 77.6865 256.387C80.5784 258.203 85.2457 262.485 86.1881 265.859C86.4154 266.675 85.9141 267.521 85.5501 268.278L85.2563 268.697C84.2721 268.529 84.636 268.445 83.8679 268.92C83.2937 271.155 86.2297 272.722 85.4289 275.387C84.9201 275.241 84.6734 275.121 84.1936 274.906L84 274.202C83.3445 274.445 83.0267 274.451 82.3472 274.526C81.2425 274.037 81.6185 274.239 80.7571 273.071C80.7339 273.635 80.7317 274.493 80.6301 275.023C80.0653 274.356 78.4554 273.124 77.5958 272.267C79.1436 271.356 81.5056 269.719 82.4558 268.208C81.8634 267.702 81.0395 267.409 80.5175 266.895C78.5741 264.985 76.6386 262.513 74.2152 261.211C72.5955 260.34 72.6036 260.398 71.077 260.828L71.4515 261.552C70.6496 262.225 69.5062 262.569 69.1632 263.06C68.0988 264.588 69.1132 266.758 66.7306 267.2C66.1837 266.281 65.6229 265.37 65.0484 264.468C66.468 262.552 67.471 262.281 68.3533 261.077C68.0321 259.907 64.4233 256.569 63.3586 255.488C59.1077 250.497 55.1263 244.448 51.6807 238.87C50.4459 236.872 48.4369 233.08 47.2602 231.424L46.8086 230.168L45.5626 228.437C44.5795 226.549 43.5707 223.701 43.0216 221.652Z" fill="#0B0B0B"/>
<path d="M71.077 260.828C70.6433 260.51 70.7932 260.622 70.5089 260.102C71.1708 258.918 73.3145 258.088 74.607 257.563C75.3972 257.753 76.1624 258.77 76.7615 259.412C79.1861 262.756 82.031 264.501 83.5825 266.736L82.4558 268.208C81.8635 267.702 81.0395 267.409 80.5175 266.895C78.5742 264.985 76.6386 262.513 74.2152 261.211C72.5955 260.34 72.6036 260.398 71.077 260.828Z" fill="#424242"/>
<path d="M76.7616 259.412L77.2543 258.158C79.0672 259.066 83.5357 263.303 84.5087 265.217L84.5023 265.918L83.5826 266.736C82.0311 264.501 79.1862 262.756 76.7616 259.412Z" fill="#202020"/>
<path d="M65.6841 254.466C67.2979 253.706 68.6321 253.753 70.462 253.237C70.8701 254.007 71.1974 254.315 71.1555 255.091C71.0083 255.155 69.4428 255.845 69.4428 255.845C68.7681 256.655 68.9999 257.139 67.99 257.443C67.1325 256.792 66.3918 255.393 65.6841 254.466Z" fill="#424242"/>
<path d="M80.7572 273.071C81.0379 272.093 80.8089 272.434 81.561 271.75C83.4521 271.468 83.958 272.532 84.0001 274.202C83.3446 274.445 83.0268 274.451 82.3472 274.526C81.2426 274.037 81.6186 274.239 80.7572 273.071Z" fill="#202020"/>
<path d="M298.412 264.915C298.703 265.27 299.158 265.775 299.367 266.158L302.227 269.267C303.437 270.373 304.543 271.515 305.688 272.683C304.956 273.331 304.666 273.604 303.822 274.088L303.328 273.94C303.096 273.336 302.998 272.884 302.518 272.462C300.943 272.867 300.828 275.054 298.703 275.616L298.113 275.199C298.152 273.18 301.124 269.63 300.236 268.3C299.166 268.479 291.849 275.367 290.226 276.702C236.366 320.963 154.006 322.628 98.5246 280.4C94.1184 277.046 88.6772 273.051 85.2563 268.697L85.5502 268.278C98.0959 281.741 120.207 294.299 137.561 300.62C177.071 314.765 220.541 312.93 258.718 295.503C269.971 290.252 281.241 283.071 290.768 275.107C293.195 273.071 296.027 271.021 297.781 268.342C298.152 267.775 297.937 266.096 298.412 264.915Z" fill="#0B0B0B"/>
<path d="M63.3587 255.488C64.4234 256.569 68.0322 259.907 68.3534 261.077C67.4711 262.281 66.4681 262.552 65.0484 264.468C64.4904 263.683 63.9787 262.965 63.1196 262.722L62.201 263.359C61.5963 262.312 60.3831 261.566 59.3977 260.898C60.0719 259.334 62.2996 258.317 63.3587 255.488Z" fill="#424242"/>
<path d="M80.7572 273.071C81.6186 274.238 81.2426 274.037 82.3473 274.526C83.0268 274.451 83.3446 274.445 84.0002 274.202L84.1937 274.906C84.6735 275.121 84.9202 275.241 85.429 275.386C86.16 277.465 94.0691 281.006 93.091 284.14C91.1943 283.931 87.2528 278.705 85.3656 277.724C84.4465 277.25 82.8419 279.534 81.9035 279.73L80.2227 278.308L81.1209 277.113C81.2681 276.04 81.0971 276.104 80.6302 275.023C80.7318 274.493 80.734 273.635 80.7572 273.071Z" fill="#202020"/>
<path d="M318.396 256.653C319.298 257.569 320.566 259.504 321.186 259.7L322.306 259.077L322.636 259.172C322.538 260.423 318.739 264.069 317.656 265.116L317.184 265.183C316.46 263.862 316.217 263.636 315.162 262.555L314.706 261.898C314.938 261.08 315.315 260.471 315.715 259.722C316.153 259.496 317.943 257.203 318.396 256.653Z" fill="#424242"/>
<path d="M343.628 223.566L343.968 224.23L343.965 228.904C342.279 229.032 339.206 229.461 337.894 228.663L339.902 224.362C341.536 223.685 342.256 224.45 343.628 223.566Z" fill="#424242"/>
<path d="M336.282 230.544C336.695 229.896 337.363 229.237 337.894 228.663C339.206 229.461 342.278 229.032 343.965 228.904C344.019 230.443 343.963 241.889 343.681 242.879C343.186 240.908 343.946 232.667 343.446 230.969L342.837 230.955C340.899 230.946 338.12 230.977 336.282 230.544Z" fill="#202020"/>
<path d="M315.162 262.555C316.217 263.636 316.46 263.862 317.184 265.183C317.125 265.362 317.052 265.608 316.949 265.75C313.818 270.057 312.986 272.18 307.905 273.794C309.514 271.415 315.798 267.242 315.731 264.342C315.298 263.594 315.215 263.418 315.162 262.555Z" fill="#202020"/>
<path d="M39.7391 320.41C44.7963 320.29 49.856 320.382 54.9055 320.689C52.2273 320.873 28.3644 321.128 26.5602 320.535L26.5917 320.217C28.1203 319.675 29.7595 319.854 31.3038 320.248C31.9838 320.801 38.9766 320.764 39.7391 320.41Z" fill="#202020"/>
<path d="M302.836 268.823C304.777 266.563 309.02 261.538 311.835 260.89L311.933 261.412C309.171 262.183 305.791 267.127 303.548 269.06C303.311 268.982 303.074 268.901 302.836 268.823Z" fill="#202020"/>
<path d="M62.2009 263.359L63.1195 262.722C63.9787 262.965 64.4903 263.683 65.0484 264.468C65.6229 265.37 66.1837 266.281 66.7306 267.2L66.7144 267.473L66.2775 267.616C65.2827 266.985 63.3698 264.49 62.2009 263.359Z" fill="#424242"/>
<path d="M336.282 230.544C338.12 230.978 340.899 230.946 342.837 230.955L342.871 231.518C340.005 232.195 337.846 231.254 335.061 232.732L336.282 230.544Z" fill="#424242"/>
<path d="M40.5912 231.306C42.3879 230.668 44.5226 231.6 46.8086 230.168L47.2602 231.424C46.0869 231.874 41.679 231.968 40.5912 231.306Z" fill="#424242"/>
<path d="M76.3646 274.582C75.7569 274.426 75.7527 274.409 75.2022 274.099C74.9126 272.94 75.038 272.336 75.7938 271.423C76.6006 271.334 76.3554 271.37 77.2148 271.856L76.3646 274.582Z" fill="#202020"/>
<path d="M352.012 320.373C353.135 320.318 356.609 320.027 357.391 320.589C355.472 320.857 353.914 320.857 351.99 320.887L352.012 320.373Z" fill="#202020"/>
<path d="M309.603 275.752C317.826 275.621 323.027 276.56 323.152 286.758C323.23 293.165 323.549 300.148 322.691 306.438C322.314 309.206 318.393 312.854 315.614 313.019C309.321 313.628 302.688 313.36 296.306 313.346L259.277 313.335C256.554 313.36 247.158 313.714 245.159 312.829L245.061 312.418C245.432 312.061 259.484 306.558 261.604 305.595C273.03 300.45 283.808 293.972 293.714 286.297C297.94 283.076 302.141 278.934 306.473 276.127C307.003 275.783 308.858 275.764 309.603 275.752Z" fill="white"/>
<path d="M80.0852 332.73C81.7492 332.331 99.0159 332.571 101.953 332.582H151.927L256.344 332.56L288.089 332.582C294.326 332.585 301.602 332.42 307.763 332.775C306.576 333.381 299.094 333.272 297.365 333.239C287.469 333.077 277.32 333.367 267.382 333.311L139.265 333.339C123.181 333.418 107.097 333.409 91.0124 333.317C84.8578 333.283 76.1736 333.644 70.2732 333.239C70.4603 333.074 78.6219 333.169 79.8592 333.107L80.0852 332.73Z" fill="#0B0B0B"/>
<path d="M217.422 313.424C217.626 316.091 217.497 316.044 218.581 318.48L218.262 318.737C217.352 318.566 217.684 318.759 217.064 317.935C217.008 316.51 217.251 316.019 216.489 315.111C214.629 314.536 212.833 315.561 210.864 315.631C209.118 315.692 207.082 315.552 205.392 315.695C198.714 316.251 192.483 316.96 185.744 316.617C182.839 316.469 180.785 316.136 177.898 315.765C175.612 315.469 174.104 315.974 171.55 315.357L172.02 314.823C183.164 315.969 206.672 316.388 217.422 313.424Z" fill="#202020"/>
<path d="M233.607 310.086C236.456 309.474 239.866 308.385 242.712 307.553C237.349 312.259 236.755 310.187 233.294 312.329C233.571 311.472 233.881 310.905 233.607 310.086Z" fill="#202020"/>
<path d="M233.607 310.086C233.881 310.905 233.571 311.472 233.294 312.329L231.766 313.441L231.241 313.164L230.241 313.072C229.317 312.863 229.691 313.08 229.049 312.452L229.244 311.896C230.442 311.083 232.202 310.569 233.607 310.086Z" fill="#202020"/>
<path d="M150.272 309.865C151.796 310.541 154.192 311.081 153.951 312.863C152.821 312.999 151.565 313.282 150.643 312.723C150.054 311.899 150.24 310.944 150.272 309.865Z" fill="#202020"/>
<path d="M171.55 315.357C168.168 314.832 167.068 316.365 165.302 316.153C165.308 315.67 166.592 314.832 167.217 314.181L167.369 314.019C168.425 313.801 170.76 314.547 172.02 314.823L171.55 315.357Z" fill="#202020"/>
<path d="M294.228 279.297C294.418 279.59 294.642 279.864 294.784 280.185C293.111 281.923 293.184 281.811 292.84 284.207C292.784 284.576 292.86 284.4 292.572 284.716C290.676 282.607 292.418 280.534 294.228 279.297Z" fill="#202020"/>
<path d="M230.241 313.072L231.241 313.164L231.101 314.086C230.275 314.446 228.54 315.39 227.783 314.793C228.253 313.918 229.194 313.712 230.241 313.072Z" fill="#424242"/>
<path d="M231.241 313.164L231.766 313.441C232.342 314.212 232.652 314.438 232.626 315.337L232.252 315.98L231.736 316.058C230.931 315.452 231.068 315.075 231.102 314.086L231.241 313.164Z" fill="#202020"/>
<path d="M0.513772 0.528114C5.87599 -0.0963009 17.0172 0.225613 22.9123 0.228965L64.3722 0.227288L203.728 0.191815L326.99 0.167235L364.427 0.162767C368.733 0.163884 379.665 -0.0852675 383.589 0.391807C383.818 4.26511 384.251 13.3348 383.296 16.7998C383.366 15.8118 383.497 15.1163 383.221 14.1683C381.866 13.5566 365.686 13.5005 364.756 14.1759C359.531 14.3178 354.065 15.0018 349.06 15.0367C333.467 15.1035 317.876 15.0311 302.286 14.8191C296.764 14.7948 291.215 15.0317 285.701 14.9912C276.18 14.9208 266.846 14.2398 257.294 14.22L124.752 14.2317L36.5394 14.4521C26.249 14.446 15.8567 14.7166 5.55676 14.7554C4.58369 14.7591 3.05342 14.9032 2.27055 14.2817C3.1643 14.1879 2.10298 14.2521 2.86211 14.3513C4.70854 14.5926 7.51351 14.475 9.39653 14.4689L49.6577 14.7415C50.6191 14.7479 51.536 14.7155 52.4203 14.3063L52.5409 13.9451L52.3164 13.9929C52.0457 14.0477 51.917 14.0647 51.6486 14.0909C50.5395 13.2589 44.4757 8.78307 43.9975 8.02528C40.8649 3.06069 42.3413 2.39563 34.7737 1.70711L34.5363 1.42528C35.1795 0.801007 35.7362 0.885361 36.7269 0.901561C37.2754 0.912734 37.8242 0.929214 38.3727 0.951001C37.8943 0.669728 8.00424 0.669447 5.00404 0.801844C3.80976 0.842904 2.62275 1.00267 1.46031 1.27892C1.3782 1.30043 1.29581 1.32193 1.21341 1.34316C0.778547 4.23019 0.898931 12.7111 0.685827 16.7453C-0.0685538 14.5228 0.336419 3.33191 0.513772 0.528114Z" fill="#363636"/>
<path d="M279.205 31.4531C282.607 31.5667 285.735 31.3042 289.114 31.1606C301.06 30.6531 313.019 31.2282 324.959 31.486C330.866 31.6134 336.748 31.2656 342.647 31.5827C343.429 42.2358 343.561 59.0569 343.29 70.133C343.228 72.7055 343.15 75.6554 343.34 78.2223C343.323 80.8479 343.183 85.8795 343.351 88.3934C343.29 89.1361 343.052 93.8641 342.857 94.3127C340.726 94.2529 338.159 95.1034 336.198 94.3928C331.567 84.6863 321.759 72.1301 314.564 64.224C315.527 63.3486 316.513 62.2417 317.407 61.2806C316.759 60.463 316.103 59.6521 315.438 58.8485L315.162 58.9449C313.645 58.4293 312.05 54.5121 308.252 53.1795C307.344 52.9228 306.758 52.6343 305.886 52.9175L305.305 53.5999L304.526 53.3555C303.671 53.8482 303.565 53.9834 302.621 53.9806C300.591 52.8756 297.535 50.3598 295.762 48.8364C290.103 43.9785 283.568 40.6468 277.705 36.1327C278.104 34.0594 278.367 33.408 279.205 31.4531Z" fill="#363636"/>
<path d="M304.526 53.3555C305.593 52.0569 307.243 51.7237 308.556 52.8661L308.252 53.1795C307.344 52.9228 306.757 52.6343 305.886 52.9175L305.305 53.5999L304.526 53.3555Z" fill="#202020"/>
<path d="M41.3188 30.8657C47.7971 32.4083 55.6392 31.5989 62.2843 31.6936C70.776 31.8148 79.2183 31.3025 87.7198 31.2737C92.784 31.5888 99.1685 32.422 104.027 31.555C104.043 32.734 104.133 33.841 103.854 34.9781C103.421 35.8372 104.062 36.0833 103.453 36.4601C96.5068 40.758 89.8129 45.1047 83.5005 50.3461C81.6474 51.8849 79.3811 53.3683 77.6526 55.0043C76.9258 54.1468 76.4499 53.3524 75.4129 53.0845L74.7778 53.2985C73.6866 53.7823 73.064 53.6541 71.8943 53.5787C69.9052 55.8037 67.4688 57.7254 65.3995 60.0951L65.6001 61.0515C65.1568 62.0037 65.108 63.9534 65.5769 64.8944C66.2316 64.9072 66.6513 64.9257 67.3007 65.0019C67.0789 66.1723 63.6791 69.0727 62.5845 70.4385C58.783 75.1822 45.8532 91.3569 44.9807 96.7075C45.0025 97.731 44.9436 100.947 45.3145 101.726L45.0799 101.79C43.1572 102.288 42.514 102.361 40.517 102.487C40.6656 101.962 40.6362 101.351 40.646 100.796C40.4421 98.9857 40.179 94.7224 40.8817 93.1842C40.4972 91.1237 40.7845 78.4078 40.803 75.785L41.3188 30.8657Z" fill="#363636"/>
<path d="M44.8391 100.996C44.8075 99.3381 44.8207 98.3513 44.9807 96.7075C45.0025 97.7309 44.9435 100.947 45.3144 101.726L45.0798 101.79C43.1572 102.288 42.5139 102.361 40.517 102.487C40.6656 101.962 40.6362 101.351 40.646 100.796C41.5046 101.061 43.8166 100.991 44.8391 100.996Z" fill="#202020"/>
<path d="M65.3994 60.0951C65.4824 58.5935 70.279 53.3948 71.8942 53.5786C69.905 55.8037 67.4687 57.7254 65.3994 60.0951Z" fill="#202020"/>
<path d="M40.8817 93.1842C41.8975 92.9583 43.3473 93.032 44.2961 93.4873L44.6212 93.9513C43.7169 93.9577 41.8752 94.0529 41.0954 93.7867L40.8817 93.1842Z" fill="#424242"/>
<path d="M26.2406 38.7276L26.9174 38.9178L27.2014 38.7432C28.4862 37.9631 29.9511 37.3274 31.4872 37.4897C32.1003 37.9371 32.2731 37.9279 32.3458 38.9273C32.5379 41.5761 32.5441 44.3561 32.5633 47.0102L32.5977 62.0551L32.4971 111.227L32.0084 234.049C31.6431 254.337 31.4344 274.627 31.3822 294.916C31.3649 302.151 31.0635 311.134 31.3107 318.234C31.2596 317.823 31.1744 316.807 30.9529 316.536C29.7165 315.027 26.8936 315.667 25.6868 316.371C25.8856 310.092 25.7538 303.167 25.7854 296.807L25.9926 262.499L26.1646 137.313L26.6339 66.0326L26.7224 50.5564C26.7408 47.2356 26.9872 41.7736 26.2406 38.7276Z" fill="#363636"/>
<path d="M115.791 46.0393C115.797 43.15 115.682 40.0982 115.639 37.1883L115.873 37.1073C117.48 38.734 118.109 39.0061 120.594 38.2617C121.878 37.8774 123.148 37.262 123.761 35.9939C122.801 36.0696 119.993 36.0288 119.25 35.5624C123.611 35.3386 128.826 35.4903 133.254 35.5071L160.803 35.6431C166.788 35.6372 173.016 35.2604 179.086 35.2132C207.428 34.9797 235.769 35.0685 264.109 35.48C265.005 35.5009 268.913 35.28 269.365 35.4856C269.298 36.6869 269.111 38.1835 269.471 39.2977C270.211 38.7606 268.544 36.0587 270.295 35.2026C271.195 35.3682 271.318 35.6691 271.965 36.4098L270.753 35.8149C269.231 36.3682 269.779 38.8798 270.488 39.7002C269.888 40.1641 269.904 40.2328 269.7 41.0029C270.2 42.7509 271.938 42.9087 273.546 43.4095L272.463 44.15C274.272 44.5936 276.655 46.4083 277.758 47.9227C275.415 46.9988 273.636 44.3768 270.605 44.9153C269.681 45.9759 270.156 48.4607 269.404 48.9721C269.287 48.2171 269.259 47.3602 268.868 46.7773C268.966 47.7741 269.08 48.9392 268.695 49.8562C268.625 48.4149 268.471 47.2434 268.282 45.8122L166.81 45.8625L135.238 45.8544C129.021 45.8527 121.922 45.6868 115.791 46.0393Z" fill="#202020"/>
<path d="M343.29 70.133L343.834 70.5115C344.767 69.2509 343.454 42.9207 344.882 38.1818C345.139 39.4628 345.102 41.4445 345.127 42.8062C345.831 55.7931 345.292 71.2354 345.557 84.5452L345.957 115.698C345.985 119.344 346.239 128.313 345.865 131.81C345.789 130.922 345.574 127.397 345.301 126.819C344.985 131.347 345.15 137.118 345.169 141.743L345.284 166.689L345.125 232.18C345.074 239.844 345.27 248.002 345.099 255.605C344.801 257.477 344.954 267.769 344.957 270.3L345.2 318.697C345.206 319.136 345.18 319.474 344.879 319.734C344.351 317.446 344.345 308.916 344.343 306.441C344.362 296.648 344.309 286.855 344.181 277.062C344.147 274.593 344.214 267.208 343.921 265.275L343.681 242.879C343.963 241.889 344.019 230.443 343.965 228.904L343.968 224.23L343.628 223.566C342.256 224.45 341.536 223.685 339.902 224.362L340.659 221.379C340.684 219.955 340.896 217.497 340.164 216.338L340.43 215.648C341.245 215.303 343.153 215.733 344.03 215.952C343.781 212.455 343.586 204.553 344.066 201.324C344.141 200.61 343.968 199.484 343.882 198.735C343.387 193.843 343.661 183.783 343.653 178.556L343.605 138.657C343.795 137.269 343.714 132.265 343.72 130.548C343.681 125.972 343.851 121.337 343.728 116.766C343.625 113.002 342.859 109.287 343.379 105.493C343.513 104.499 343.759 103.612 343.857 102.603L343.379 102.024L343.2 102.487C342.058 102.481 340.868 102.225 339.731 102.03C338.852 102.408 339.156 102.113 338.706 102.845L338.623 102.535C338.606 101.865 338.609 99.694 338.413 99.1678C337.768 97.4148 336.441 96.3824 336.198 94.3928C338.159 95.1034 340.726 94.2529 342.857 94.3127C343.052 93.8641 343.29 89.1361 343.351 88.3934C343.183 85.8795 343.323 80.8479 343.34 78.2223C343.15 75.6554 343.228 72.7055 343.29 70.133Z" fill="#0F0F0F"/>
<path d="M343.29 70.133L343.834 70.5115C344.767 69.2509 343.454 42.9207 344.881 38.1818C345.138 39.4628 345.102 41.4445 345.127 42.8062C344.706 52.198 345.839 61.621 344.546 71.0503C344.178 73.749 344.882 77.4514 344.334 80.1661L344.111 80.0222C344.108 79.4594 344.144 75.4512 344.021 75.2981C343.898 76.9729 344.147 76.9816 343.34 78.2223C343.15 75.6554 343.228 72.7055 343.29 70.133Z" fill="#202020"/>
<path d="M336.198 94.3928C338.159 95.1034 340.726 94.2529 342.857 94.3127C340.907 97.8094 344.276 100.602 340.217 101.552L339.731 102.03C338.852 102.408 339.156 102.113 338.706 102.845L338.623 102.535C338.606 101.865 338.609 99.694 338.413 99.1678C337.768 97.4148 336.441 96.3824 336.198 94.3928Z" fill="#202020"/>
<path d="M340.164 216.338L340.429 215.648C341.245 215.303 343.153 215.733 344.03 215.952C343.714 219.525 343.761 220.586 343.968 224.23L343.627 223.566C342.256 224.45 341.535 223.685 339.902 224.362L340.658 221.379C340.684 219.955 340.896 217.497 340.164 216.338Z" fill="#202020"/>
<path d="M340.658 221.379L341.295 221.308C342.019 222.157 342.655 223.015 343.627 223.566C342.256 224.45 341.535 223.685 339.902 224.362L340.658 221.379Z" fill="#595959"/>
<path d="M342.857 94.3127C343.052 93.8641 343.289 89.1361 343.351 88.3934C343.532 90.0366 343.602 100.413 343.379 102.024L343.2 102.487C342.058 102.481 340.868 102.225 339.731 102.03L340.217 101.552C344.275 100.602 340.907 97.8095 342.857 94.3127Z" fill="#0B0B0B"/>
<path d="M67.7191 69.5662C68.3084 70.1642 70.5447 72.2013 70.6092 72.7901C67.4113 77.5025 63.0012 82.3087 59.5564 87.3213C57.7636 89.9321 56.0579 92.6018 54.4424 95.326C53.4699 96.9961 52.0762 99.7317 51.0272 101.213C49.9295 101.2 48.687 101.153 47.6027 101.219L45.7932 103.185L45.0798 101.79L45.3144 101.726C46.3205 100.617 51.8117 90.7382 53.4557 88.2559C58.266 80.9925 62.1697 76.164 67.7191 69.5662Z" fill="#363636"/>
<path d="M345.099 255.605C345.27 248.002 345.074 239.844 345.124 232.18L345.284 166.689L345.169 141.743C345.15 137.118 344.985 131.347 345.3 126.819C345.574 127.397 345.789 130.922 345.865 131.81L346.091 255.561C346.211 275.289 346.454 295.05 346.448 314.784C346.448 315.491 346.437 316.566 346.007 317.117C345.219 316.346 345.323 313.354 345.312 312.148L345.231 270.451C345.231 268.161 345.563 257.161 345.099 255.605Z" fill="#363636"/>
<path d="M270.488 39.7002C269.779 38.8798 269.231 36.3682 270.753 35.8149L271.965 36.4098L272.231 36.5475C273.546 37.2129 274.096 37.2224 275.568 37.3391C275.526 38.3502 274.736 38.3743 275.175 38.6916C276.135 39.389 278.884 40.6982 279.951 41.1283C285.285 44.5011 294.332 50.2805 298.555 54.8685L298.571 55.0495C298.038 56.2601 297.217 57.7053 296.58 58.898C287.564 50.8304 280.439 46.2016 270.488 39.7002Z" fill="#424242"/>
<path d="M279.951 41.1284C285.285 44.5011 294.332 50.2805 298.555 54.8686L298.571 55.0495C296.496 54.4579 295.334 53.6588 293.642 52.3287C289.653 49.1923 285.285 46.5787 281.308 43.4506C280.652 42.9355 280.249 41.8926 279.951 41.1284Z" fill="#202020"/>
<path d="M312.561 71.3497C317.03 72.1022 319.13 75.3961 321.689 78.989L329.688 90.3047C331.009 92.1795 332.567 94.6777 334.062 96.2969C335.626 98.5879 336.452 101.329 337.65 103.078C338.067 103.697 338.234 103.845 338.296 104.598L337.927 104.811L337.215 104.463C336.424 102.184 334.79 103.056 332.972 102.644C331.735 101.25 329.196 96.1313 328.026 94.2191C324.996 89.2992 321.708 84.5424 318.181 79.968C316.695 78.0332 313.55 74.2845 312.142 72.1094C312.003 71.8932 312.335 71.6279 312.561 71.3497Z" fill="#424242"/>
<path d="M40.0175 215.33C41.1615 215.334 42.5259 215.303 43.6484 215.352C43.7814 216.055 43.9288 216.754 44.0903 217.45C43.0342 218.995 43.0479 219.86 43.0217 221.652C43.5708 223.701 44.5796 226.549 45.5627 228.437L46.8086 230.168C44.5226 231.6 42.3879 230.668 40.5912 231.306C40.8387 234.137 40.6599 275.764 40.3438 276.635C40.1547 275.657 40.2558 267.015 40.2572 265.599L40.322 238.086C40.3295 233.096 38.8925 219.325 40.0175 215.33Z" fill="#202020"/>
<path d="M45.5626 228.437L44.9309 228.646C43.4947 227.688 43.0562 228.495 41.4751 227.776C40.814 227.469 40.3077 226.905 40.0736 226.215C39.4097 224.232 41.1869 222.023 43.0216 221.652C43.5707 223.701 44.5795 226.549 45.5626 228.437Z" fill="#424242"/>
<path d="M305.305 53.5999L305.886 52.9175C306.758 52.6343 307.344 52.9228 308.252 53.1795C312.05 54.5121 313.645 58.4293 315.162 58.9449C315.329 59.6113 315.731 60.585 315.212 61.0965C314.276 62.021 313.008 63.4905 311.721 63.6785C309.71 62.1961 305.97 58.2678 303.66 56.3067C303.727 55.4456 304.668 54.5431 305.305 53.5999Z" fill="#424242"/>
<path d="M71.8942 53.5786C73.0639 53.6541 73.6864 53.7823 74.7776 53.2985C75.8236 54.5135 76.3646 55.1113 77.5647 56.1587C73.9347 58.9337 71.9411 61.6814 68.768 64.3757C68.003 63.5436 66.3993 61.7034 65.6 61.0515L65.3994 60.0951C67.4687 57.7254 69.905 55.8037 71.8942 53.5786Z" fill="#363636"/>
<path d="M364.756 14.1758C365.686 13.5005 381.866 13.5566 383.221 14.1683C383.497 15.1163 383.366 15.8118 383.296 16.7998C382.612 19.367 375.998 36.0137 373.914 37.8754C372.789 38.8821 361.821 38.4192 359.031 38.4946C358.506 39.408 358.095 40.1781 357.442 41.0149C356.422 40.8325 351.917 41.004 351.208 41.4811L351.317 37.5922C352.573 37.5748 356.355 37.957 357.067 37.7704L357.182 36.5204L357.307 36.6517C357.316 37.4436 357.162 38.4751 357.894 38.8807C358.179 38.5882 358.52 38.2335 358.925 37.8167C361.371 37.4296 371.644 38.591 373.191 37.4986C376.191 35.3825 380.349 20.9881 382.626 17.2819C382.975 16.7154 382.779 15.0794 382.478 14.6309C379.676 13.3965 369.119 15.1166 364.756 14.1758Z" fill="#202020"/>
<path d="M291.695 57.517C295.035 59.0103 294.985 61.9526 298.918 59.7672L298.985 59.9267C298.985 60.1937 298.988 60.5359 298.993 60.9535C301.417 64.1774 305.146 67.2172 307.953 70.2257C308.556 70.8726 309.12 71.3039 309.606 71.6567L310.193 71.6363C310.355 72.4971 310.548 73.3524 310.771 74.2001C306.749 75.5062 294.7 60.7401 291.695 57.517Z" fill="#202020"/>
<path d="M298.985 59.9267C302.462 57.815 303.104 63.9539 307.389 65.4692C308.227 66.334 312.343 69.5729 312.424 69.736C312.086 70.5821 311.02 71.0955 310.193 71.6362L309.606 71.6566C309.12 71.3039 308.556 70.8726 307.953 70.2257C305.146 67.2172 301.417 64.1773 298.993 60.9535C298.987 60.5359 298.985 60.1937 298.985 59.9267Z" fill="#363636"/>
<path d="M312.561 71.3496C313.821 70.8874 314.265 70.5645 315.388 69.8461C321.331 76.3667 330.682 88.1567 334.062 96.2969C332.567 94.6777 331.009 92.1795 329.688 90.3047L321.689 78.989C319.13 75.3961 317.03 72.1021 312.561 71.3496Z" fill="#202020"/>
<path d="M104.039 29.2699L104.292 28.6227C105.243 28.6244 106.707 30.407 107.448 30.6C108.648 30.9123 111.111 30.5171 112.259 31.0559L112.353 31.4813C109.653 32.8698 110.367 29.2532 109.438 35.1624C107.1 35.5646 105.983 35.9819 103.854 34.9781C104.133 33.841 104.043 32.734 104.027 31.555L104.039 29.2699Z" fill="#424242"/>
<path d="M40.8375 105.444C41.9862 105.375 43.4852 105.228 44.5862 105.36C43.8019 107.222 42.5809 111.381 42.9375 113.305C42.594 113.608 42.7255 113.478 42.1664 113.586L41.8957 113.32C42.4532 112.612 42.4326 112.536 42.5901 111.617L42.322 111.439C41.7865 112.08 41.5779 112.237 40.8174 112.582L41.3774 112.023C41.6058 111.516 40.8677 106.916 40.8375 105.444Z" fill="#202020"/>
<path d="M40.517 102.487C42.5139 102.361 43.1572 102.288 45.0798 101.79L45.7932 103.185C45.4404 103.86 45.0156 104.761 44.5863 105.36C43.4853 105.228 41.9863 105.375 40.8376 105.444C40.4742 104.217 40.5175 103.732 40.517 102.487Z" fill="#424242"/>
<path d="M104.039 29.2699L104.027 31.555C99.1684 32.422 92.7839 31.5888 87.7197 31.2737C91.0894 30.9748 95.306 31.5407 98.7045 31.0424C101.064 30.6966 101.212 29.1626 104.039 29.2699Z" fill="#202020"/>
<path d="M298.918 59.7672C299.292 58.7605 299.359 58.4131 300.169 57.6852C301.124 57.4159 300.677 57.3863 301.557 57.6944C301.725 58.0642 302.208 59.5214 302.244 59.5664C303.884 61.6168 305.769 63.3785 307.389 65.4692C303.104 63.9539 302.462 57.815 298.985 59.9267L298.918 59.7672Z" fill="#202020"/>
<path d="M136.129 25.9566C138.869 26.1033 143.495 26.5172 146.071 25.8835C147.531 24.3603 148.395 24.655 150.722 24.6092C169.262 24.3232 187.785 25.0315 206.322 25.2709C213.958 25.3695 222.033 24.6385 229.577 24.9204C241.941 25.3826 254.761 25.0139 267.025 25.9416C248.834 27.3655 230.563 26.6175 212.316 26.6376L159.337 26.4083C154.146 26.4133 149.029 26.6879 143.854 26.8574C139.708 26.9935 135.212 26.7128 131.03 26.6639C132.089 26.4063 134.462 26.5429 135.939 26.382L136.129 25.9566Z" fill="#202020"/>
<path d="M38.1015 103.925C39.355 106.927 37.6513 114.653 38.9883 117.016C39.345 120.56 39.0224 131.191 39.0095 135.337L39.0017 173.385L39.1835 261.233C39.3413 277.641 39.3422 294.05 39.186 310.458C39.1584 312.279 39.1992 315.253 38.4629 316.876L37.9809 317.055C38.0624 316.901 38.5867 315.904 38.5945 315.773C39.1475 306.67 38.9486 293.981 38.9512 285.193L38.9556 255.491C38.9553 250.035 39.0059 244.512 38.888 239.059C38.8121 235.553 37.4603 231.576 37.1818 228.108C37.0855 226.911 37.9122 224.134 37.9784 222.641C38.2616 215.185 38.9171 207.663 38.7104 200.188C38.5911 195.879 37.999 191.587 38.2644 187.206C38.4088 184.822 38.1839 181.83 37.1259 179.698C36.6481 178.735 36.8897 177.469 36.9559 176.376L36.8011 176.29C36.3425 177.057 36.4601 177.682 36.4732 178.598C36.4947 176.954 36.6095 175.311 36.6933 173.668C37.6868 154.187 37.8728 134.722 37.9611 115.212C37.9781 111.448 37.9812 107.681 38.1015 103.925Z" fill="#363636"/>
<path d="M112.096 35.48C112.802 35.3802 113.049 35.2914 113.739 35.5037C114.403 36.5615 114.173 37.2841 114.203 38.7091C112.013 40.2873 107.961 42.3925 105.497 43.964C100.82 46.9473 96.4232 49.9469 91.9511 53.2398C90.6557 54.1937 86.4439 57.9069 85.4364 58.0416L82.6228 55.159C90.7894 47.768 102.259 40.3929 112.096 35.48Z" fill="#363636"/>
<path d="M38.1015 103.925C37.8102 99.3904 37.9541 94.2267 38.0108 89.6498C38.2244 72.3678 37.7508 55.1481 39.0037 37.9156L39.2277 38.0193L39.026 37.4933L39.1559 37.4277C39.9614 42.3247 39.7969 46.7041 39.8164 51.6268L39.7396 70.9156C39.6293 85.3052 39.891 102.979 38.9883 117.016C37.6513 114.653 39.355 106.928 38.1015 103.925Z" fill="#2C2C2C"/>
<path d="M116.727 28.2825L210.637 28.2177C227.714 28.1015 244.793 28.1239 261.869 28.2845L261.693 28.4222C259.548 28.3624 255.328 28.8749 253.504 28.8632C239.282 28.771 119.265 29.6221 116.727 28.2825Z" fill="#202020"/>
<path d="M70.2285 67.8348C70.8857 67.9582 70.5911 68.0118 71.1483 67.7239C72.571 64.888 77.0224 62.1523 79.0864 59.5857C79.1543 58.8885 79.2113 58.3039 79.2571 57.8318C79.8587 57.0553 79.5819 57.3092 80.5407 56.9146C82.4159 57.007 83.1125 58.6332 83.5552 60.2041C83.0742 63.7559 77.991 67.4543 75.4654 69.9472C73.181 72.2019 69.8649 71.5502 69.2935 68.0308L69.5108 67.437L69.8859 67.4155L70.2285 67.8348Z" fill="#424242"/>
<path d="M70.2285 67.8348C70.8857 67.9582 70.591 68.0118 71.1482 67.7239C72.571 64.888 77.0224 62.1523 79.0864 59.5857C79.1543 58.8885 79.2113 58.3039 79.2571 57.8318C79.8587 57.0553 79.5819 57.3092 80.5407 56.9146C82.4159 57.007 83.1125 58.6332 83.5552 60.2041C82.4271 59.9452 81.4197 59.5845 80.3245 59.8365C78.1555 61.9208 74.1457 67.6593 71.3231 68.6652L70.6919 68.6099C70.3609 68.1864 70.3969 68.3191 70.2285 67.8348Z" fill="#202020"/>
<path d="M273.334 32.0572C272.317 31.9014 272.541 32.091 271.954 31.4835C272.764 30.259 276.783 29.6244 278.074 30.602C278.155 31.3827 278.141 31.3491 277.909 32.1114L276.633 35.0792C275.541 33.9286 274.675 32.9251 273.334 32.0572Z" fill="#424242"/>
<path d="M273.334 32.0572C275.225 32.3321 275.976 32.2516 277.909 32.1114L276.632 35.0792C275.54 33.9286 274.675 32.9251 273.334 32.0572Z" fill="#363636"/>
<path d="M131.03 26.6639C128.329 26.9052 118.434 26.2712 115.758 25.8276C122.08 25.7357 129.886 25.4522 136.129 25.9566L135.939 26.382C134.462 26.5429 132.089 26.4064 131.03 26.6639Z" fill="#202020"/>
<path d="M342.605 20.78L342.966 20.9102L343.024 21.2912C342.083 22.054 332.984 21.6275 331.065 21.5937L330.763 21.5831C330.316 21.7593 342.656 20.7798 342.605 20.78Z" fill="#363636"/>
<path d="M311.771 65.4038C313.064 65.6851 314.134 67.0093 314.022 68.3285L313.712 68.4084C312.704 67.1901 312.38 66.8493 311.771 65.4038Z" fill="#202020"/>
<path d="M360.257 25.5095L360.715 25.515L360.835 25.9723C359.922 26.5036 359.947 26.2871 358.71 26.0851C358.115 26.167 358.349 26.1636 357.743 25.9768C358.542 25.4991 359.304 25.5639 360.257 25.5095Z" fill="#202020"/>
</g>
<defs>
<clipPath id="clip0_3_5">
<rect width="384" height="341" fill="white"/>
</clipPath>
</defs>
</svg>
